<svg width="100" height="30" viewBox="0 0 100 30" fill="none" xmlns="http://www.w3.org/2000/svg">
<path d="M0 29.6201V0.379829C0 0.170268 0.17114 0 0.381774 0H10.8345C18.2133 0 21.7282 3.77865 21.7282 9.81663C21.7282 13.2154 20.2406 15.5861 18.1474 17.1513C17.9829 17.2757 17.9434 17.5049 18.0619 17.6686L26.5267 29.3975C26.7044 29.6463 26.5267 29.9934 26.2174 29.9934H17.035C16.91 29.9934 16.7915 29.9279 16.7191 29.8232L10.0183 19.7904C9.94588 19.6856 9.8274 19.6202 9.70233 19.6202H8.58992C8.37929 19.6202 8.20815 19.7904 8.20815 20V29.6136C8.20815 29.8232 8.03701 29.9934 7.82637 29.9934H0.381774C0.17114 29.9934 0 29.8232 0 29.6136V29.6201ZM8.21473 11.9319C8.21473 12.1414 8.38587 12.3117 8.5965 12.3117H10.6831C12.2036 12.3117 13.5332 11.6503 13.5332 9.81663C13.5332 7.98297 12.4208 7.34119 10.6831 7.34119H8.5965C8.38587 7.34119 8.21473 7.51146 8.21473 7.72102V11.9384V11.9319Z" fill="current"/>
<path d="M25.6179 17.7274C25.6179 10.157 31.2129 5.4812 38.0124 5.4812C44.338 5.4812 49.7421 9.66588 49.7421 17.7078C49.7421 18.0876 49.7026 19.0765 49.6236 19.6593C49.5973 19.8492 49.4393 19.9868 49.2484 19.9868L34.063 19.9671C33.8129 19.9671 33.6352 20.2029 33.6944 20.4386C34.1354 22.3378 36.1101 23.6344 38.2691 23.6344C40.4281 23.6344 41.8828 22.7962 42.7517 21.5519C42.857 21.4013 43.0479 21.3424 43.2124 21.4144L48.8008 23.7785C49.0049 23.8636 49.097 24.1125 48.9917 24.309C47.017 27.8846 42.5805 29.9998 38.1375 29.9998C31.3379 29.9998 25.6113 25.3306 25.6113 17.734L25.6179 17.7274ZM41.5274 15.2782C41.7775 15.2782 41.9486 15.049 41.896 14.8067C41.4418 12.8224 39.9015 11.6109 37.9927 11.6109C36.0838 11.6109 34.2342 12.8158 33.701 14.7936C33.6352 15.0359 33.8129 15.2782 34.0696 15.2782H41.5339H41.5274Z" fill="current"/>
<path d="M51.3025 17.7274C51.3025 10.157 56.8974 5.4812 63.697 5.4812C70.0226 5.4812 75.4267 9.66588 75.4267 17.7078C75.4267 18.0876 75.3872 19.0765 75.3082 19.6593C75.2819 19.8492 75.1239 19.9868 74.933 19.9868L59.7476 19.9671C59.4975 19.9671 59.3197 20.2029 59.379 20.4386C59.82 22.3378 61.7947 23.6344 63.9537 23.6344C66.1127 23.6344 67.5674 22.7962 68.4362 21.5519C68.5416 21.4013 68.7324 21.3424 68.897 21.4144L74.4854 23.7785C74.6894 23.8636 74.7816 24.1125 74.6763 24.309C72.7016 27.8846 68.2651 29.9998 63.822 29.9998C57.0225 29.9998 51.2959 25.3306 51.2959 17.734L51.3025 17.7274ZM67.2119 15.2782C67.4621 15.2782 67.6332 15.049 67.5805 14.8067C67.1264 12.8224 65.5861 11.6109 63.6772 11.6109C61.7684 11.6109 59.9187 12.8158 59.3856 14.7936C59.3197 15.0359 59.4975 15.2782 59.7542 15.2782H67.2185H67.2119Z" fill="current"/>
<path d="M83.4833 29.738L75.8083 7.34117C75.7228 7.09887 75.9071 6.84346 76.1638 6.84346H83.7927C83.9638 6.84346 84.1152 6.96134 84.1613 7.12506L87.5183 19.6267C87.617 20 88.1502 20 88.2489 19.6267L91.6256 7.11851C91.6717 6.95479 91.8231 6.83691 91.9942 6.83691H99.6231C99.8799 6.83691 100.064 7.09232 99.9786 7.33462L92.3036 29.7315C92.2509 29.8821 92.1061 29.9869 91.9482 29.9869H83.8453C83.6808 29.9869 83.536 29.8821 83.4899 29.7315L83.4833 29.738Z" fill="current"/>
</svg>
