<svg width="160" height="108" viewBox="0 0 160 108" fill="none" xmlns="http://www.w3.org/2000/svg">
<path d="M105.786 0.975641C116.476 1.36594 127.135 1.15578 137.351 4.69854C153.323 10.2228 166.164 30.3685 156.866 45.5003C149.117 58.1101 135.358 62.4335 120.651 62.4635C113.282 62.4635 105.975 61.6229 98.6692 60.9323C94.5259 60.542 90.3509 60.2118 86.2076 59.8515C84.5629 59.7014 79.8186 60.1217 78.4586 59.1609C86.4922 64.7453 95.9175 68.3481 105.659 70.1195C115.401 71.8909 124.035 69.8793 130.614 77.8055C136.623 85.0411 133.998 99.8426 125.459 104.376C118.88 107.859 110.372 108.069 103.16 106.868C97.1194 105.847 92.217 104.887 86.3025 103.896C73.0185 101.704 61.3793 99.2121 49.8032 88.0735C51.4795 90.8356 44.4264 98.9419 42.6868 100.383C32.882 108.489 14.2845 106.838 6.94668 96.6301C-1.46649 85.0411 -0.422752 67.9578 0.874014 54.6274C2.36055 39.3755 10.6472 23.9135 22.9507 13.9758C37.7212 1.99644 58.1215 0.0148926 76.8456 0.0148926C86.4606 0.0148926 96.0757 0.645383 105.691 0.975641C105.722 0.975641 105.754 0.975641 105.786 0.975641Z" fill="#3881F1"/>
<path d="M86.4271 21.5418C86.3322 24.394 85.162 27.2162 83.0112 28.9576C79.9749 31.4195 75.4204 31.0592 72.8585 28.1469C69.1263 23.9137 69.6956 16.2877 75.0092 13.3754C76.8121 12.4147 78.9628 12.1445 80.9238 12.805C84.7824 14.096 86.5536 17.8189 86.4271 21.5418Z" fill="#F8F8F8"/>
<path d="M81.4292 28.147C83.211 28.147 84.6553 26.5205 84.6553 24.5142C84.6553 22.5078 83.211 20.8813 81.4292 20.8813C79.6475 20.8813 78.2031 22.5078 78.2031 24.5142C78.2031 26.5205 79.6475 28.147 81.4292 28.147Z" fill="black"/>
<path d="M94.6497 13.0452C91.9297 12.5948 89.2729 13.6757 87.4068 15.6872C87.1854 15.9274 87.1854 16.2877 87.4068 16.5579C89.0199 18.4494 89.1148 20.8813 88.6087 23.6735C88.4189 24.7243 88.1026 25.625 87.6282 26.5557C87.1538 27.5165 86.7742 28.5372 87.8496 29.2278C89.8422 30.5488 92.5306 30.6989 94.8079 30.0384C97.0851 29.3779 98.9512 27.6365 100.027 25.625C100.469 24.7843 100.786 23.9136 100.975 22.9829C101.861 18.2392 99.0145 13.7657 94.6181 13.0152L94.6497 13.0452Z" fill="#F8F8F8"/>
<path d="M94.3023 28.8076C96.084 28.8076 97.5284 27.1812 97.5284 25.1748C97.5284 23.1685 96.084 21.542 94.3023 21.542C92.5205 21.542 91.0762 23.1685 91.0762 25.1748C91.0762 27.1812 92.5205 28.8076 94.3023 28.8076Z" fill="black"/>
<path d="M76.2758 39.0153C75.5799 38.4449 75.2636 37.304 75.5799 36.4933C76.1809 35.0222 78.1418 34.4217 79.6284 34.1515C81.3679 33.8513 83.1391 33.8213 84.9103 33.7912C87.0611 33.7912 89.2118 33.6712 91.3309 33.9414C92.4379 34.0915 93.9244 34.3317 94.6203 35.2624C94.9682 35.7127 94.9998 36.2532 94.8417 36.7636C94.4305 38.1446 93.1021 38.8652 91.7421 39.3155C90.0341 39.856 88.2313 40.1862 86.4285 40.3363C86.0173 40.3664 85.6061 40.4264 85.1633 40.4865C85.1633 40.4865 78.9325 41.3271 76.2441 38.9853L76.2758 39.0153Z" fill="white"/>
</svg>
