<svg width="current" height="current" viewBox="0 0 20 20" fill="none" xmlns="http://www.w3.org/2000/svg">
<path d="M5.16602 12.666L6.99681 10.3371C7.51595 9.67676 8.50903 9.65515 9.05641 10.2923L10.666 12.166M9.27605 10.548C9.96748 9.66846 10.9309 8.42238 10.9936 8.34131L11.0002 8.33279C11.5203 7.67667 12.5102 7.65655 13.0564 8.29233L14.666 10.166M6.49935 5.16602H13.4993C14.2357 5.16602 14.8327 5.76297 14.8327 6.49935V13.4993C14.8327 14.2357 14.2357 14.8327 13.4993 14.8327H6.49935C5.76297 14.8327 5.16602 14.2357 5.16602 13.4993V6.49935C5.16602 5.76297 5.76297 5.16602 6.49935 5.16602Z" stroke="#667085" stroke-width="1.5" stroke-linecap="round" stroke-linejoin="round"/>
</svg>
