<svg width="current" height="current" viewBox="0 0 20 20" fill="none" xmlns="http://www.w3.org/2000/svg">
<path d="M5.16602 6.16602L6.16602 5.16602V8.83268M6.16602 8.83268H5.16602M6.16602 8.83268H6.83268M10.8327 11.4993H9.77017C9.28301 11.4993 9.01149 10.9566 9.26987 10.5709C9.3017 10.5234 9.34676 10.4868 9.39438 10.4551L10.5943 9.65665C10.6419 9.62496 10.6868 9.58817 10.7193 9.54111C11.0162 9.11123 10.7135 8.49935 10.1677 8.49935H9.16602M13.166 11.8327H14.1303C14.9532 11.8327 15.0993 13.0911 14.3394 13.3031C14.3026 13.3134 14.264 13.3175 14.2259 13.3188L13.8327 13.3327L14.2259 13.3465C14.264 13.3479 14.3026 13.352 14.3394 13.3623C15.0993 13.5743 14.9532 14.8327 14.1303 14.8327H13.166" stroke="#667085" stroke-width="1.5" stroke-linecap="round" stroke-linejoin="round"/>
</svg>
