<svg width="current" height="current" viewBox="0 0 20 20" fill="none" xmlns="http://www.w3.org/2000/svg">
<path d="M8.49935 5.99935H14.166M8.49935 9.99935H14.166M8.49935 13.9993H14.166M6.33268 5.99935C6.33268 6.18344 6.18344 6.33268 5.99935 6.33268C5.81525 6.33268 5.66602 6.18344 5.66602 5.99935C5.66602 5.81525 5.81525 5.66602 5.99935 5.66602C6.18344 5.66602 6.33268 5.81525 6.33268 5.99935ZM6.33268 9.99935C6.33268 10.1834 6.18344 10.3327 5.99935 10.3327C5.81525 10.3327 5.66602 10.1834 5.66602 9.99935C5.66602 9.81525 5.81525 9.66602 5.99935 9.66602C6.18344 9.66602 6.33268 9.81525 6.33268 9.99935ZM6.33268 13.9993C6.33268 14.1834 6.18344 14.3327 5.99935 14.3327C5.81525 14.3327 5.66602 14.1834 5.66602 13.9993C5.66602 13.8153 5.81525 13.666 5.99935 13.666C6.18344 13.666 6.33268 13.8153 6.33268 13.9993Z" stroke="#667085" stroke-width="1.5" stroke-linecap="round" stroke-linejoin="round"/>
</svg>
