<svg width="90" height="50" viewBox="0 0 90 50" fill="none" xmlns="http://www.w3.org/2000/svg">
<path d="M61.2759 33.6214C77.3545 33.2309 75.5134 9.78638 61.0237 9.91656C44.4532 9.91656 45.6134 33.9989 61.2759 33.6214ZM64.9582 16.8939C65.2279 16.8338 65.5069 16.8344 65.7763 16.8957C66.0457 16.9571 66.2991 17.0778 66.5192 17.2495C66.7393 17.4212 66.9209 17.64 67.0515 17.8908C67.1822 18.1416 67.2588 18.4186 67.2763 18.7028C67.2937 18.9871 67.2515 19.2718 67.1525 19.5376C67.0536 19.8035 66.9002 20.0441 66.7029 20.2431C66.5056 20.4422 66.2689 20.5949 66.0092 20.6908C65.7494 20.7868 65.4727 20.8238 65.1978 20.7992C64.9282 20.8589 64.6492 20.8579 64.38 20.7963C64.1108 20.7347 63.8576 20.6139 63.6376 20.4422C63.4176 20.2705 63.2361 20.0519 63.1054 19.8012C62.9746 19.5506 62.8978 19.2738 62.88 18.9897C62.8615 18.7056 62.9032 18.4206 63.0021 18.1547C63.1009 17.8888 63.2546 17.6483 63.4525 17.4498C63.6501 17.2509 63.8868 17.0983 64.1467 17.0024C64.4065 16.9065 64.6833 16.8695 64.9582 16.8939ZM64.4664 24.2358C65.8158 23.2334 66.9885 25.3813 65.1978 26.7742C60.5319 30.328 56.1181 27.9197 54.7688 25.889C53.7851 24.4961 55.248 23.2855 56.4838 24.1186C58.2241 25.3813 60.1662 27.2819 64.5295 24.2358H64.4664ZM55.248 16.6336C55.5173 16.5729 55.7961 16.5729 56.0654 16.6336C56.3347 16.6943 56.5882 16.8143 56.8085 16.9853C57.0289 17.1563 57.2108 17.3743 57.3421 17.6245C57.4734 17.8747 57.5508 18.1512 57.5691 18.4351C57.5875 18.7191 57.5463 19.0037 57.4484 19.2697C57.3504 19.5357 57.1981 19.7767 57.0017 19.9764C56.8053 20.1761 56.5695 20.3297 56.3104 20.4268C56.0513 20.5238 55.7749 20.562 55.5002 20.5388C55.2384 20.583 54.9706 20.5701 54.714 20.5011C54.4573 20.4321 54.2175 20.3084 54.0099 20.138C53.8023 19.9676 53.6315 19.7542 53.5086 19.5116C53.3856 19.269 53.3131 19.0026 53.2959 18.7294C53.2782 18.4563 53.316 18.1824 53.4068 17.9253C53.4976 17.6681 53.6394 17.4334 53.8232 17.2361C54.007 17.0388 54.2286 16.8833 54.4739 16.7796C54.7193 16.6758 54.983 16.6261 55.248 16.6336Z" fill="#FFBFB0"/>
<path d="M36.471 11.9474C34.6298 12.0776 34.6298 12.3249 34.6298 14.8633C34.6298 25.6418 32.8138 27.5424 35.9791 27.5424C37.4546 27.5424 37.4546 27.9199 37.8203 20.4348C38.3752 11.7652 38.9931 11.7131 36.471 11.9474Z" fill="#FFBFB0"/>
<path d="M48.2485 0.361412C27.7435 1.2466 11.9045 -1.16163 4.41374 5.17788C0.983634 8.0938 0 12.9884 0 20.89C0 31.1608 1.71505 40.2861 14.6032 40.6636C9.89939 56.0112 23.2919 47.9794 28.2353 41.5487C47.0253 41.5487 72.4484 41.0541 78.6781 38.9453C87.6443 35.8992 89.1198 28.1668 89.372 21.0722C89.7377 12.5848 87.6443 7.00033 83.7224 3.3294C80.0527 -0.224377 61.2754 -0.0942005 48.2485 0.361412ZM82.0199 5.30806C88.1235 10.4239 90.4061 32.072 78.098 36.4849C72.688 38.3855 50.9598 39.6482 28.3614 39.4009C27.9268 39.4023 27.4968 39.4928 27.0964 39.6671C26.6959 39.8414 26.3329 40.096 26.0285 40.4162C23.6723 43.0705 20.8364 45.224 17.6802 46.7557C16.9488 47.0291 15.9651 46.8729 16.2047 45.6102C18.2224 35.5477 16.7722 39.8825 8.95359 37.1228C2.44647 34.7146 2.44647 28.0106 2.33298 21.9054C2.33298 14.941 2.57258 9.10916 7.60425 6.19325C16.3308 1.11643 25.9024 3.78501 52.9145 2.89982C61.1492 2.69154 78.4007 2.18386 82.0199 5.36013V5.30806Z" fill="#FFBFB0"/>
<path d="M15.8393 29.5602C15.5924 29.5388 15.3438 29.5705 15.1093 29.6533C14.8749 29.7361 14.6596 29.8683 14.4772 30.0414C14.2947 30.2146 14.1491 30.4249 14.0495 30.6591C13.9499 30.8934 13.8984 31.1464 13.8984 31.4022C13.8984 31.658 13.9499 31.911 14.0495 32.1453C14.1491 32.3795 14.2947 32.5898 14.4772 32.763C14.6596 32.9361 14.8749 33.0683 15.1093 33.1511C15.3438 33.2339 15.5924 33.2656 15.8393 33.2442C16.2116 33.2771 16.5844 33.1887 16.9055 32.9914C17.2265 32.794 17.4795 32.4977 17.6287 32.1442C17.7533 31.8509 17.8018 31.5292 17.7697 31.2107C17.7375 30.8922 17.6258 30.5878 17.4454 30.3273C17.265 30.0668 17.0221 29.8591 16.7405 29.7246C16.459 29.5902 16.1484 29.5335 15.8393 29.5602Z" fill="#FFBFB0"/>
<path d="M17.1894 11.816C12.8891 10.8006 14.9825 22.7247 14.2385 26.1352C14.1124 27.9056 15.4995 28.1269 16.8237 27.9056C17.6812 27.7624 17.5551 27.1376 18.0847 20.9282C18.6144 12.1805 19.1314 12.0764 17.1894 11.816Z" fill="#FFBFB0"/>
<path d="M33.7602 30.7057C33.751 30.9686 33.7941 31.2307 33.8869 31.4757C33.9797 31.7207 34.1202 31.9435 34.2998 32.1302C34.4794 32.3169 34.6941 32.4635 34.9308 32.5611C35.1675 32.6587 35.421 32.7051 35.6758 32.6974C36.0603 32.6842 36.4314 32.5476 36.7372 32.3066C37.043 32.0656 37.2684 31.7322 37.382 31.3527C37.4577 31.1015 37.4829 30.8372 37.4552 30.5755C37.5687 27.7898 33.6467 28.5578 33.7602 30.7057Z" fill="#FFBFB0"/>
<path d="M26.0289 11.6849C24.9192 11.5677 24.5535 12.1926 24.4274 13.3381C24.3013 14.4836 23.9355 22.4504 23.9355 24.1166C23.9355 26.642 23.9355 27.41 24.9192 27.5402C26.2685 27.6573 27.2521 27.41 27.2521 25.887C27.9583 13.2079 29.2194 12.0754 26.0289 11.6849Z" fill="#FFBFB0"/>
<path d="M25.4368 29.3112C25.1994 29.3047 24.9631 29.3473 24.7419 29.4366C24.5208 29.5258 24.3191 29.66 24.149 29.831C23.9788 30.002 23.8436 30.2065 23.7512 30.4323C23.6589 30.6582 23.6113 30.9009 23.6113 31.146C23.6113 31.3912 23.6589 31.6338 23.7512 31.8597C23.8436 32.0855 23.9788 32.29 24.149 32.4611C24.3191 32.6321 24.5208 32.7662 24.7419 32.8555C24.9631 32.9447 25.1994 32.9874 25.4368 32.9808C25.9 32.9681 26.3401 32.7692 26.6634 32.4265C26.9867 32.0838 27.1676 31.6243 27.1676 31.146C27.1676 30.6677 26.9867 30.2082 26.6634 29.8655C26.3401 29.5228 25.9 29.3239 25.4368 29.3112Z" fill="#FFBFB0"/>
</svg>
